<svg width="96" height="96" viewBox="0 0 96 96" fill="none" xmlns="http://www.w3.org/2000/svg">
<g clip-path="url(#clip0)">
<rect width="96" height="96" fill="url(#paint0_linear)"/>
<path opacity="0.14" d="M35.8931 19.7741C35.5467 18.9051 35.3942 17.9708 35.4464 17.0367C35.4985 16.1026 35.7541 15.1912 36.1951 14.3661C36.6362 13.5411 37.2521 12.8223 37.9998 12.26C38.7476 11.6977 39.6091 11.3056 40.5242 11.1109C41.5786 10.7384 54.34 8.19292 55.7848 -0.222231C56.1551 -2.14959 56.9764 -3.96191 58.1815 -5.51095C59.3866 -7.05999 60.9413 -8.30174 62.7184 -9.13461C64.4955 -9.96748 66.4445 -10.3678 68.4061 -10.3029C70.3676 -10.2379 72.2859 -9.70956 74.004 -8.76096L80.5649 -5.63547C83.6989 -4.06439 87.2392 -3.49199 90.7086 -3.99545L100.893 -5.47343C101.55 -5.60642 102.214 -5.70281 102.881 -5.76218L102.906 -5.76568L102.906 -5.76448C110.724 -6.45203 118.393 -2.00217 121.445 5.66421C125.171 15.0242 120.604 25.6325 111.244 29.3584C110.329 29.7228 109.385 30.0128 108.424 30.2257L98.8399 33.1733C96.2522 33.9694 93.8899 35.367 91.9463 37.2518C90.0026 39.1365 88.533 41.4547 87.6577 44.0167C87.1812 45.4106 86.7401 47.307 86.7221 47.6416C86.722 47.6441 86.7151 47.6472 86.7123 47.6499C86.2877 50.2936 85.1839 52.7818 83.509 54.8709C81.8341 56.96 79.6455 58.5784 77.1574 59.5678C69.2171 62.7286 60.2178 58.8541 57.057 50.9137C57.014 50.8054 51.2727 34.6639 51.2727 34.6639C51.2643 34.6406 51.2557 34.6172 51.2472 34.5939C49.8319 30.7563 47.0816 27.5569 43.5 25.5816L38.9613 23.13C37.5624 22.4244 36.4708 21.2304 35.8931 19.7741V19.7741Z" fill="#226345"/>
<path opacity="0.09" d="M51.4177 79.3642C74.8444 79.3642 93.8354 75.3328 93.8354 70.3599C93.8354 65.3869 74.8444 61.3555 51.4177 61.3555C27.9911 61.3555 9 65.3869 9 70.3599C9 75.3328 27.9911 79.3642 51.4177 79.3642Z" fill="#226345"/>
<path d="M46.7622 16C47.3024 16 47.8206 16.2164 48.2026 16.6015C48.5846 16.9866 48.7992 17.5089 48.7992 18.0536V22.2678H42.708V18.3801C42.708 17.7488 42.9567 17.1435 43.3995 16.6971C43.8422 16.2508 44.4427 16 45.0689 16H46.7622Z" fill="#5C945D"/>
<g filter="url(#filter0_d)">
<path d="M84.6219 20.7297H21.0748C20.3245 20.7297 19.7163 21.338 19.7163 22.0883V67.0238C19.7163 67.774 20.3245 68.3823 21.0748 68.3823H84.6219C85.3722 68.3823 85.9805 67.774 85.9805 67.0238V22.0883C85.9805 21.338 85.3722 20.7297 84.6219 20.7297Z" fill="#3D4051"/>
</g>
<path d="M84.2024 23.2699H21.4951V66.2942H84.2024V23.2699Z" fill="#F7F3EC"/>
<path d="M28.9614 22.9984L23.5215 32.4919L87.4141 32.463L84.3244 23.0013L28.9614 22.9984Z" fill="url(#paint1_linear)" stroke="#979797"/>
<path d="M27.9703 37.1826C27.6658 37.1826 27.3644 37.1226 27.0831 37.0061C26.8018 36.8896 26.5462 36.7188 26.3309 36.5035C26.1156 36.2882 25.9448 36.0326 25.8283 35.7514C25.7118 35.4701 25.6518 35.1686 25.6519 34.8641V32.4921H30.2884V34.8641C30.2884 35.1685 30.2285 35.47 30.112 35.7513C29.9955 36.0326 29.8248 36.2881 29.6095 36.5034C29.3943 36.7187 29.1387 36.8895 28.8575 37.006C28.5762 37.1225 28.2747 37.1825 27.9703 37.1826V37.1826Z" fill="#BA1CFE"/>
<path d="M32.607 37.1826C31.9921 37.1825 31.4024 36.9383 30.9677 36.5035C30.5329 36.0687 30.2886 35.479 30.2886 34.8641V32.4921H34.9257V34.8641C34.9258 35.1686 34.8658 35.4701 34.7493 35.7514C34.6327 36.0327 34.4619 36.2883 34.2466 36.5036C34.0313 36.7189 33.7757 36.8897 33.4944 37.0062C33.213 37.1227 32.9115 37.1826 32.607 37.1826V37.1826Z" fill="#A31EFE"/>
<path d="M23.3829 37.1826C22.768 37.1825 22.1783 36.9383 21.7435 36.5035C21.3087 36.0687 21.0645 35.479 21.0645 34.8641V32.4921H25.7016V34.8641C25.7016 35.1686 25.6417 35.4701 25.5251 35.7514C25.4086 36.0327 25.2378 36.2883 25.0225 36.5036C24.8072 36.7189 24.5516 36.8897 24.2702 37.0062C23.9889 37.1227 23.6874 37.1826 23.3829 37.1826V37.1826Z" fill="#A31EFE"/>
<path d="M18.4491 37.1833C16.9916 37.1833 15.8096 36.1452 15.8096 34.8648V32.4928H21.0878V34.8648C21.0882 36.1452 19.9069 37.1833 18.4491 37.1833Z" fill="#BA1CFE"/>
<path d="M37.2433 37.1826C36.6284 37.1825 36.0387 36.9383 35.6039 36.5035C35.1691 36.0687 34.9248 35.479 34.9248 34.8641V32.4921H39.5618V34.8641C39.5618 35.479 39.3175 36.0687 38.8827 36.5035C38.4479 36.9383 37.8582 37.1825 37.2433 37.1826V37.1826Z" fill="#BA1CFE"/>
<path d="M41.8814 37.1826C41.2666 37.1825 40.6769 36.9383 40.2421 36.5035C39.8073 36.0687 39.563 35.479 39.563 34.8641V32.4921H44.2V34.8641C44.2 35.479 43.9557 36.0687 43.5209 36.5035C43.0861 36.9383 42.4963 37.1826 41.8814 37.1826V37.1826Z" fill="#A31EFE"/>
<path d="M46.5179 37.1826C45.903 37.1825 45.3134 36.9382 44.8786 36.5034C44.4439 36.0686 44.1997 35.479 44.1997 34.8641V32.4921H48.8364V34.8641C48.8364 35.1686 48.7765 35.4701 48.66 35.7514C48.5435 36.0327 48.3727 36.2883 48.1574 36.5036C47.9421 36.7188 47.6865 36.8896 47.4052 37.0061C47.1239 37.1226 46.8224 37.1826 46.5179 37.1826V37.1826Z" fill="#BA1CFE"/>
<path d="M51.1549 37.1826C50.54 37.1825 49.9503 36.9382 49.5155 36.5034C49.0808 36.0687 48.8365 35.479 48.8364 34.8641V32.4921H53.4734V34.8641C53.4734 35.479 53.2291 36.0687 52.7943 36.5035C52.3595 36.9383 51.7698 37.1826 51.1549 37.1826V37.1826Z" fill="#A31EFE"/>
<path d="M55.7913 37.1826C55.1765 37.1825 54.5869 36.9382 54.1521 36.5034C53.7174 36.0686 53.4732 35.4789 53.4731 34.8641V32.4921H58.1101V34.8641C58.1101 35.1686 58.0501 35.4701 57.9336 35.7514C57.8171 36.0327 57.6463 36.2883 57.4309 36.5036C57.2156 36.7189 56.96 36.8897 56.6787 37.0062C56.3973 37.1226 56.0958 37.1826 55.7913 37.1826V37.1826Z" fill="#BA1CFE"/>
<path d="M60.4132 37.1826C59.7983 37.1825 59.2086 36.9383 58.7738 36.5035C58.339 36.0687 58.0947 35.479 58.0947 34.8641V32.4921H62.7317V34.8641C62.7317 35.479 62.4874 36.0687 62.0526 36.5035C61.6178 36.9383 61.0281 37.1826 60.4132 37.1826V37.1826Z" fill="#A31EFE"/>
<path d="M64.982 37.1826C64.3671 37.1825 63.7775 36.9383 63.3427 36.5035C62.9079 36.0687 62.6636 35.479 62.6636 34.8641V32.4921H67.3006V34.8641C67.3005 35.479 67.0563 36.0687 66.6215 36.5035C66.1866 36.9383 65.5969 37.1826 64.982 37.1826V37.1826Z" fill="#BA1CFE"/>
<path d="M69.6353 37.1826C69.0205 37.1825 68.4308 36.9383 67.996 36.5035C67.5612 36.0687 67.3169 35.479 67.3169 34.8641V32.4921H71.9539V34.8641C71.9539 35.479 71.7096 36.0687 71.2748 36.5035C70.84 36.9383 70.2502 37.1826 69.6353 37.1826V37.1826Z" fill="#A31EFE"/>
<path d="M74.2906 37.1826C73.6757 37.1825 73.086 36.9383 72.6513 36.5035C72.2165 36.0687 71.9722 35.479 71.9722 34.8641V32.4921H76.6092V34.8641C76.6091 35.479 76.3649 36.0687 75.93 36.5035C75.4952 36.9383 74.9055 37.1826 74.2906 37.1826V37.1826Z" fill="#BA1CFE"/>
<path d="M78.9444 37.1824C78.3295 37.1824 77.7399 36.9382 77.3051 36.5034C76.8703 36.0686 76.626 35.4789 76.626 34.864V32.492L81.2661 32.4611L81.263 34.864C81.2629 35.4789 81.0187 36.0686 80.5839 36.5034C80.149 36.9382 79.5593 37.1824 78.9444 37.1824V37.1824Z" fill="#A31EFE"/>
<path d="M84.3487 37.1824C82.6577 37.1824 81.2867 36.1444 81.2867 34.864L81.2676 32.4611H87.4029L87.4108 34.864C87.4106 36.1444 86.0396 37.1824 84.3487 37.1824Z" fill="#BA1CFE"/>
<path d="M30.2886 32.492L33.7734 22.9899H37.2509L34.9257 32.492H30.2886Z" fill="#F0E7D6"/>
<path d="M21.0649 32.4919L25.7121 22.9883L29.8913 22.9901L25.702 32.4919H21.0649Z" fill="#F0E7D6"/>
<path d="M15.8496 32.4921L21.4435 22.9872L26.086 22.9858L21.039 32.4921H15.8496Z" fill="url(#paint2_linear)" stroke="#979797"/>
<path d="M39.5635 32.4921L40.856 22.99L45.3235 22.9895L44.2004 32.4921H39.5635Z" fill="#F0E7D6"/>
<path d="M72.022 32.4919L69.9608 22.9984H66.2896L67.3849 32.4919H72.022Z" fill="#F0E7D6"/>
<path d="M62.7473 32.4919L62.332 22.9984H58.4163L58.1104 32.4919H62.7473Z" fill="#F0E7D6"/>
<path d="M49.7326 22.9862H54.1774L53.4743 32.4919H48.8374L49.7326 22.9862Z" fill="#F0E7D6"/>
<path d="M74.6514 22.9924H78.8122L81.2676 32.492H76.6109L74.6514 22.9924Z" fill="#F0E7D6"/>
<g opacity="0.46">
<g opacity="0.46">
<path opacity="0.46" d="M56.3587 52.1837H46.1714V62.3711H56.3587V52.1837Z" fill="#FFD6E5"/>
</g>
<g opacity="0.46">
<path opacity="0.46" d="M50.4161 60.3744L51.2892 56.8001L52.1624 60.3744H53.9831L53.677 54.9779H48.9012L48.5952 60.3744H50.4161Z" fill="url(#paint3_linear)"/>
<path opacity="0.46" d="M53.6771 54.464H48.9033V54.978H53.6771V54.464Z" fill="#F9A31A"/>
</g>
<g opacity="0.46">
<g opacity="0.46">
<path opacity="0.46" d="M50.8155 56.2133C50.7933 56.2134 50.7713 56.2092 50.7507 56.2009C50.7291 56.1924 50.7093 56.1798 50.6926 56.1636C50.6759 56.1475 50.6625 56.1282 50.6533 56.1069C50.644 56.0855 50.6391 56.0626 50.6387 56.0394C50.6383 56.0161 50.6426 55.993 50.6511 55.9714L51.1255 54.7708C51.134 54.7492 51.1467 54.7295 51.1628 54.7128C51.179 54.6961 51.1983 54.6828 51.2196 54.6735C51.2409 54.6643 51.2638 54.6593 51.287 54.659C51.3103 54.6586 51.3333 54.6628 51.3549 54.6713C51.3765 54.6798 51.3963 54.6925 51.4129 54.7087C51.4296 54.7248 51.443 54.7441 51.4522 54.7654C51.4615 54.7867 51.4664 54.8097 51.4668 54.8329C51.4672 54.8561 51.463 54.8792 51.4545 54.9008L50.9802 56.1014C50.9671 56.1344 50.9444 56.1627 50.915 56.1826C50.8857 56.2026 50.851 56.2133 50.8155 56.2133V56.2133Z" fill="#FFD175"/>
</g>
<g opacity="0.46">
<path opacity="0.46" d="M51.7636 56.2133C51.7281 56.2133 51.6935 56.2026 51.6641 56.1827C51.6348 56.1627 51.6122 56.1344 51.5992 56.1014L51.1252 54.9008C51.1079 54.8572 51.1087 54.8085 51.1274 54.7654C51.1461 54.7224 51.1811 54.6885 51.2247 54.6713C51.2683 54.6541 51.317 54.6549 51.36 54.6735C51.4031 54.6922 51.4369 54.7272 51.4542 54.7708L51.928 55.9714C51.9366 55.993 51.9408 56.0161 51.9404 56.0393C51.9401 56.0625 51.9352 56.0855 51.9259 56.1068C51.9167 56.1281 51.9034 56.1474 51.8867 56.1636C51.87 56.1797 51.8503 56.1924 51.8286 56.2009C51.808 56.2092 51.7859 56.2134 51.7636 56.2133V56.2133Z" fill="#FFD175"/>
</g>
</g>
</g>
<g opacity="0.46">
<g opacity="0.46">
<path opacity="0.46" d="M56.4691 39.4752H46.2817V49.6626H56.4691V39.4752Z" fill="#C7F0FF"/>
</g>
<g opacity="0.46">
<path opacity="0.46" d="M55.0576 43.1015V45.5742H47.689V44.8809C47.8518 44.159 50.0379 43.4727 50.9647 43.2144C51.2157 43.1402 51.375 43.1014 51.375 43.1014L55.0576 43.1015Z" fill="#0098C2"/>
<path opacity="0.46" d="M55.0587 45.5726H47.689V46.1323H55.0587V45.5726Z" fill="#1D3A40"/>
<g opacity="0.46">
<path opacity="0.46" d="M55.0577 43.1016V43.8374C54.6614 44.2794 54.0918 44.7113 53.3668 44.7113C52.27 44.7113 51.3644 43.7314 50.9648 43.2149C51.2159 43.1407 51.3751 43.1019 51.3751 43.1019L55.0577 43.1016Z" fill="#FFD175"/>
</g>
<g opacity="0.46">
<path opacity="0.46" d="M51.374 43.0996C51.374 43.0996 52.2215 44.2457 53.3272 44.2457C54.4329 44.2457 55.0589 43.0996 55.0589 43.0996H51.374Z" fill="#1B4D5B"/>
</g>
<g opacity="0.46">
<path opacity="0.46" d="M50.0094 44.1423C49.9762 44.1424 49.9438 44.1331 49.9157 44.1156C49.8876 44.0981 49.865 44.073 49.8505 44.0433L49.5631 43.4575C49.5424 43.4154 49.5392 43.3667 49.5544 43.3223C49.5695 43.2778 49.6017 43.2412 49.6438 43.2205C49.686 43.1997 49.7346 43.1966 49.7791 43.2117C49.8236 43.2269 49.8602 43.259 49.8809 43.3012L50.1685 43.8872C50.1817 43.9142 50.1879 43.9441 50.1863 43.9741C50.1848 44.0041 50.1756 44.0332 50.1597 44.0587C50.1439 44.0842 50.1217 44.1053 50.0955 44.1199C50.0692 44.1345 50.0397 44.1422 50.0096 44.1422L50.0094 44.1423Z" fill="#F9A31A"/>
</g>
<g opacity="0.46">
<path opacity="0.46" d="M49.4131 44.3757C49.38 44.3758 49.3476 44.3666 49.3195 44.3492C49.2914 44.3317 49.2688 44.3067 49.2542 44.277L48.9668 43.691C48.9462 43.6489 48.9431 43.6003 48.9582 43.5558C48.9734 43.5114 49.0056 43.4748 49.0477 43.4541C49.0899 43.4335 49.1385 43.4304 49.183 43.4455C49.2274 43.4607 49.264 43.4929 49.2846 43.5351L49.572 44.121C49.5853 44.148 49.5915 44.1779 49.59 44.208C49.5886 44.238 49.5794 44.2672 49.5635 44.2927C49.5476 44.3182 49.5254 44.3392 49.4991 44.3538C49.4728 44.3683 49.4432 44.3759 49.4131 44.3758V44.3757Z" fill="#F9A31A"/>
</g>
<g opacity="0.46">
<path opacity="0.46" d="M50.6053 43.9448C50.5722 43.9449 50.5398 43.9357 50.5117 43.9182C50.4836 43.9008 50.461 43.8758 50.4464 43.8461L50.1588 43.2601C50.1395 43.2182 50.1373 43.1703 50.1528 43.1268C50.1683 43.0833 50.2001 43.0475 50.2416 43.0272C50.2831 43.0068 50.3308 43.0034 50.3747 43.0178C50.4186 43.0322 50.4552 43.0631 50.4766 43.1041L50.7639 43.6898C50.7771 43.7168 50.7833 43.7467 50.7817 43.7767C50.7802 43.8067 50.7711 43.8358 50.7552 43.8613C50.7393 43.8868 50.7172 43.9079 50.6909 43.9225C50.6646 43.9371 50.6351 43.9448 50.605 43.9448H50.6053Z" fill="#F9A31A"/>
</g>
</g>
</g>
<g opacity="0.46">
<path opacity="0.46" d="M69.3958 39.4752H59.2085V49.6626H69.3958V39.4752Z" fill="#DFD6FF"/>
</g>
<path opacity="0.46" d="M68.3224 42.5526L67.6055 43.9374L66.7521 43.7145V47.5498H61.854V43.7145L61.0005 43.9371L60.2822 42.5523L62.6273 41.7211L63.0043 41.5875H65.6018L65.9773 41.7211L68.3224 42.5526Z" fill="url(#paint4_linear)"/>
<path opacity="0.46" d="M65.9764 41.7212C65.8339 42.1116 65.3396 43.2236 64.3023 43.2236C63.2616 43.2236 62.7674 42.1113 62.6265 41.7212L63.0034 41.5878H65.6009L65.9764 41.7212Z" fill="#C7ABFF"/>
<path opacity="0.46" d="M65.602 41.5878C65.602 41.5878 65.2547 42.8243 64.3033 42.8243C63.3504 42.8243 63.0044 41.5878 63.0044 41.5878H65.602Z" fill="#8C71C2"/>
<g opacity="0.46">
<g opacity="0.46">
<path opacity="0.46" d="M43.532 52.2263H33.3447V62.4137H43.532V52.2263Z" fill="#FFD6FA"/>
</g>
<g opacity="0.46">
<path opacity="0.46" d="M42.4567 55.3038L41.7398 56.6886L40.8863 56.4657V60.3011H35.9883V56.4657L35.1348 56.6884L34.4165 55.3035L36.7616 54.4723L37.1386 54.3387H39.7361L40.1116 54.4723L42.4567 55.3038Z" fill="#C54BB6"/>
<path opacity="0.46" d="M40.1127 54.4723C39.9701 54.8627 39.4758 55.9747 38.4385 55.9747C37.3979 55.9747 36.9036 54.8624 36.7627 54.4723L37.1396 54.3389H39.7371L40.1127 54.4723Z" fill="#7A246F"/>
<path opacity="0.46" d="M39.7372 54.3389C39.7372 54.3389 39.39 55.5754 38.4386 55.5754C37.4857 55.5754 37.1396 54.3389 37.1396 54.3389H39.7372Z" fill="#E580D8"/>
</g>
</g>
<g opacity="0.46">
<g opacity="0.46">
<path opacity="0.46" d="M69.246 52.1837H59.3584C59.2756 52.1837 59.2085 52.2508 59.2085 52.3336V62.2211C59.2085 62.3039 59.2756 62.371 59.3584 62.371H69.246C69.3288 62.371 69.3959 62.3039 69.3959 62.2211V52.3336C69.3959 52.2508 69.3288 52.1837 69.246 52.1837Z" fill="#C7FFBA"/>
</g>
<path opacity="0.46" d="M64.6707 57.0318C64.7496 57.1107 64.8033 57.2111 64.825 57.3205C64.8468 57.4299 64.8356 57.5433 64.7929 57.6463C64.7502 57.7494 64.6779 57.8374 64.5852 57.8994C64.4925 57.9614 64.3835 57.9944 64.2719 57.9944C64.1604 57.9944 64.0514 57.9614 63.9586 57.8994C63.8659 57.8374 63.7936 57.7494 63.7509 57.6463C63.7083 57.5433 63.6971 57.4299 63.7188 57.3205C63.7406 57.2111 63.7943 57.1107 63.8731 57.0318C63.9255 56.9794 63.9877 56.9379 64.0561 56.9095C64.1245 56.8812 64.1979 56.8666 64.2719 56.8666C64.346 56.8666 64.4193 56.8812 64.4878 56.9095C64.5562 56.9379 64.6184 56.9794 64.6707 57.0318" fill="#4A9A37"/>
<path opacity="0.46" d="M65.9637 55.88H65.5737L65.2912 55.316H63.2516L62.9695 55.8803L62.5804 55.881C62.4312 55.8816 62.2882 55.9412 62.1828 56.0468C62.0773 56.1524 62.018 56.2954 62.0176 56.4447L62.0161 58.6997C62.0163 58.8492 62.0758 58.9925 62.1815 59.0982C62.2872 59.2039 62.4305 59.2635 62.58 59.2638H65.9637C66.1131 59.2635 66.2564 59.204 66.3621 59.0983C66.4678 58.9926 66.5273 58.8493 66.5276 58.6998V56.4441C66.5273 56.2946 66.4679 56.1512 66.3622 56.0455C66.2565 55.9398 66.1132 55.8802 65.9637 55.88ZM64.2718 58.5588C64.0487 58.5588 63.8306 58.4926 63.6451 58.3687C63.4597 58.2447 63.3151 58.0686 63.2297 57.8625C63.1444 57.6563 63.122 57.4296 63.1655 57.2108C63.2091 56.992 63.3165 56.791 63.4743 56.6332C63.632 56.4755 63.833 56.3681 64.0518 56.3246C64.2706 56.2811 64.4974 56.3034 64.7035 56.3888C64.9096 56.4742 65.0858 56.6188 65.2097 56.8043C65.3336 56.9898 65.3997 57.2078 65.3997 57.4309C65.3994 57.7299 65.2804 58.0166 65.069 58.228C64.8575 58.4395 64.5708 58.5584 64.2718 58.5588V58.5588Z" fill="#4A9A37"/>
</g>
<g opacity="0.46">
<g opacity="0.46">
<path opacity="0.46" d="M43.3822 39.4325H33.4946C33.4118 39.4325 33.3447 39.4996 33.3447 39.5824V49.4699C33.3447 49.5527 33.4118 49.6198 33.4946 49.6198H43.3822C43.465 49.6198 43.5321 49.5527 43.5321 49.4699V39.5824C43.5321 39.4996 43.465 39.4325 43.3822 39.4325Z" fill="#FFE9BA"/>
</g>
<g opacity="0.46">
<path opacity="0.46" d="M38.8079 44.2807C38.8868 44.3596 38.9405 44.46 38.9622 44.5694C38.984 44.6788 38.9728 44.7922 38.9301 44.8952C38.8874 44.9983 38.8152 45.0863 38.7224 45.1483C38.6297 45.2103 38.5207 45.2433 38.4091 45.2433C38.2976 45.2433 38.1886 45.2103 38.0959 45.1483C38.0031 45.0863 37.9308 44.9983 37.8882 44.8952C37.8455 44.7922 37.8343 44.6788 37.856 44.5694C37.8778 44.46 37.9315 44.3596 38.0103 44.2807C38.0627 44.2283 38.1249 44.1868 38.1933 44.1584C38.2617 44.1301 38.3351 44.1155 38.4091 44.1155C38.4832 44.1155 38.5565 44.1301 38.625 44.1584C38.6934 44.1868 38.7556 44.2283 38.8079 44.2807" fill="#E19A00"/>
<path opacity="0.46" d="M40.0994 43.1287H39.7095L39.427 42.5648H37.3873L37.1053 43.1291L36.7161 43.1298C36.5669 43.1304 36.424 43.19 36.3185 43.2956C36.2131 43.4012 36.1537 43.5442 36.1534 43.6935L36.1519 45.9484C36.1521 46.0979 36.2116 46.2413 36.3173 46.347C36.423 46.4527 36.5663 46.5123 36.7158 46.5125H40.0994C40.2489 46.5123 40.3921 46.4528 40.4978 46.3471C40.6035 46.2414 40.663 46.0981 40.6633 45.9486V43.6928C40.6631 43.5433 40.6036 43.4 40.4979 43.2943C40.3922 43.1885 40.2489 43.129 40.0994 43.1287ZM38.4075 45.8075C38.1845 45.8075 37.9664 45.7414 37.7809 45.6174C37.5954 45.4935 37.4508 45.3173 37.3655 45.1112C37.2801 44.9051 37.2578 44.6783 37.3013 44.4595C37.3448 44.2407 37.4523 44.0398 37.61 43.882C37.7678 43.7243 37.9687 43.6169 38.1875 43.5733C38.4064 43.5298 38.6331 43.5522 38.8392 43.6376C39.0453 43.723 39.2215 43.8675 39.3454 44.053C39.4694 44.2385 39.5355 44.4566 39.5355 44.6797C39.5351 44.9787 39.4161 45.2654 39.2047 45.4768C38.9932 45.6883 38.7066 45.8072 38.4075 45.8075V45.8075Z" fill="#E19A00"/>
</g>
</g>
<g filter="url(#filter1_d)">
<path d="M47.5106 16.0253L44.9786 16.0093L41.3009 16.0298H14.2873C11.9933 16.0298 10.1338 17.7329 10.1338 19.8335V60.7115H45.1193V18.1153C45.2218 16.0298 47.5106 16.0253 47.5106 16.0253Z" fill="#FAFAFA"/>
</g>
<path d="M26.905 25.7106H31.2914C33.649 25.7106 34.533 26.867 34.397 28.5742C34.1703 31.3937 32.4249 32.9466 30.1013 32.9466H28.9339C28.6165 32.9466 28.4012 33.1559 28.3105 33.7066L27.8118 36.9336C27.7778 37.1429 27.6644 37.264 27.4944 37.275H24.7402C24.4795 37.275 24.3888 37.0768 24.4568 36.6693L26.1343 26.3273C26.2023 25.9088 26.4403 25.7106 26.905 25.7106Z" fill="#009EE3"/>
<path d="M24.3314 22.1796H28.5182C29.6944 22.1796 31.0971 22.2236 32.0251 23.0602C32.651 23.6216 32.9747 24.5132 32.8992 25.4819C32.6402 28.7401 30.7303 30.5674 28.1621 30.5674H26.1119C25.7558 30.5674 25.5292 30.8095 25.4321 31.448L24.8602 35.1906C24.817 35.4328 24.7199 35.5759 24.5364 35.5979H21.9467C21.6661 35.5979 21.5582 35.3777 21.6338 34.8934L23.4898 22.8951C23.5653 22.4107 23.8243 22.1796 24.3314 22.1796Z" fill="#113984"/>
<path d="M25.4941 31.2721L26.2357 26.3527C26.3011 25.917 26.5192 25.7106 26.9772 25.7106H31.1974C31.8954 25.7106 32.4624 25.8252 32.9095 26.0431C32.4842 29.0704 30.6304 30.7446 28.1877 30.7446H26.1048C25.8322 30.7446 25.625 30.8937 25.4941 31.2721Z" fill="#172C70"/>
<path d="M17.4667 43.1897C18.3481 43.1897 19.1556 43.6591 19.048 44.8292C18.9134 46.2174 18.153 46.9843 16.962 46.9909H15.919C15.771 46.9909 15.6969 47.1099 15.6566 47.3545L15.4547 48.6171C15.4211 48.8088 15.3269 48.9014 15.1788 48.9014H14.2031C14.0484 48.9014 13.9945 48.8022 14.0282 48.5841L14.8356 43.5335C14.876 43.2822 14.9702 43.1897 15.1452 43.1897H17.4667ZM15.8854 45.8935H16.6726C17.1706 45.8737 17.4936 45.5365 17.5272 44.9349C17.5474 44.5581 17.2917 44.2937 16.8812 44.2937H16.1343L15.8854 45.8935ZM21.6857 48.5113C21.7732 48.432 21.8674 48.3923 21.8539 48.4915L21.8203 48.7229C21.8068 48.8485 21.8539 48.908 21.9683 48.908H22.8296C22.9776 48.908 23.0449 48.8485 23.0786 48.6303L23.6102 45.3514C23.6371 45.1861 23.5967 45.1068 23.4689 45.1068H22.5201C22.4326 45.1068 22.3922 45.1531 22.372 45.2787L22.3384 45.477C22.3182 45.5828 22.2711 45.6026 22.224 45.4968C22.0625 45.12 21.652 44.9548 21.0801 44.968C19.7478 44.9944 18.8528 45.986 18.7586 47.2619C18.6846 48.2535 19.4046 49.027 20.3466 49.027C21.033 49.027 21.3425 48.8287 21.6857 48.5113ZM20.9657 48.0089C20.3937 48.0089 19.9967 47.5594 20.0775 47.0107C20.1582 46.462 20.6965 46.0125 21.2685 46.0125C21.8405 46.0125 22.2375 46.462 22.1567 47.0107C22.076 47.5594 21.5377 48.0089 20.9657 48.0089ZM25.3059 45.1002H24.4311C24.2494 45.1002 24.1754 45.2324 24.236 45.3977L25.3193 48.5246L24.2561 50.012C24.1687 50.1376 24.236 50.25 24.3638 50.25H25.3462C25.4606 50.2632 25.575 50.2103 25.6356 50.1111L28.9731 45.4043C29.0741 45.2589 29.027 45.1068 28.8587 45.1068H27.9301C27.7687 45.1068 27.7081 45.1663 27.6139 45.2985L26.221 47.2817L25.5952 45.2919C25.5616 45.1663 25.4741 45.1002 25.3059 45.1002Z" fill="#113984"/>
<path d="M32.4794 43.1961C33.3643 43.1961 34.1748 43.6504 34.0667 44.7829C33.9316 46.1265 33.1684 46.8687 31.9728 46.8751H30.9258C30.7772 46.8751 30.7029 46.9903 30.6624 47.227L30.4598 48.4491C30.426 48.6346 30.3314 48.7242 30.1828 48.7242H29.2102C29.0548 48.7242 29.0008 48.6282 29.0346 48.4171L29.8384 43.5224C29.8789 43.2793 29.9734 43.1897 30.1491 43.1897L32.4794 43.1961ZM30.8921 45.813H31.6891C32.1822 45.7938 32.5132 45.4675 32.547 44.8852C32.5672 44.5205 32.3105 44.2646 31.8985 44.2646H31.1487L30.8921 45.813ZM36.7146 48.3467C36.8024 48.2699 36.8969 48.2315 36.8834 48.3275L36.8496 48.5514C36.8361 48.673 36.8834 48.7306 36.9982 48.7306H37.8628C38.0114 48.7306 38.079 48.673 38.1128 48.4619L38.6464 45.2883C38.6734 45.1284 38.6329 45.0516 38.5045 45.0516H37.5521C37.4643 45.0516 37.4238 45.0964 37.4035 45.2179L37.3697 45.4099C37.3495 45.5123 37.3022 45.5315 37.2549 45.4291C37.0928 45.0644 36.6808 44.9044 36.1066 44.9172C34.7692 44.9428 33.8709 45.9026 33.7763 47.1374C33.702 48.0908 34.4247 48.8394 35.3704 48.8394C36.0594 48.8458 36.3701 48.6538 36.7146 48.3467ZM35.9851 47.8604C35.4109 47.8604 35.0124 47.4253 35.0934 46.8943C35.1745 46.3632 35.7149 45.9281 36.289 45.9281C36.8632 45.9281 37.2617 46.3632 37.1806 46.8943C37.0996 47.4253 36.5592 47.8604 35.9851 47.8604ZM39.9838 48.737H38.9841C38.9166 48.737 38.8625 48.6922 38.8625 48.6282C38.8625 48.6218 38.8625 48.6154 38.8625 48.609L39.7406 43.3369C39.7609 43.2601 39.8284 43.2089 39.9095 43.2089H40.9092C40.9767 43.2089 41.0308 43.2537 41.0308 43.3177C41.0308 43.3241 41.0308 43.3305 41.0308 43.3369L40.1527 48.609C40.1324 48.6858 40.0648 48.737 39.9838 48.737Z" fill="#009EE3"/>
</g>
<defs>
<filter id="filter0_d" x="19.7163" y="0.729736" width="106.264" height="87.6525" filterUnits="userSpaceOnUse" color-interpolation-filters="sRGB">
<feFlood flood-opacity="0" result="BackgroundImageFix"/>
<feColorMatrix in="SourceAlpha" type="matrix" values="0 0 0 0 0 0 0 0 0 0 0 0 0 0 0 0 0 0 127 0"/>
<feOffset dx="20"/>
<feGaussianBlur stdDeviation="10"/>
<feColorMatrix type="matrix" values="0 0 0 0 0 0 0 0 0 0 0 0 0 0 0 0 0 0 0.161 0"/>
<feBlend mode="normal" in2="BackgroundImageFix" result="effect1_dropShadow"/>
<feBlend mode="normal" in="SourceGraphic" in2="effect1_dropShadow" result="shape"/>
</filter>
<filter id="filter1_d" x="5.13379" y="1.00928" width="67.3768" height="74.7022" filterUnits="userSpaceOnUse" color-interpolation-filters="sRGB">
<feFlood flood-opacity="0" result="BackgroundImageFix"/>
<feColorMatrix in="SourceAlpha" type="matrix" values="0 0 0 0 0 0 0 0 0 0 0 0 0 0 0 0 0 0 127 0"/>
<feOffset dx="10"/>
<feGaussianBlur stdDeviation="7.5"/>
<feColorMatrix type="matrix" values="0 0 0 0 0 0 0 0 0 0 0 0 0 0 0 0 0 0 0.251 0"/>
<feBlend mode="normal" in2="BackgroundImageFix" result="effect1_dropShadow"/>
<feBlend mode="normal" in="SourceGraphic" in2="effect1_dropShadow" result="shape"/>
</filter>
<linearGradient id="paint0_linear" x1="48" y1="0" x2="48" y2="96" gradientUnits="userSpaceOnUse">
<stop stop-color="#C2E998"/>
<stop offset="1" stop-color="#02CC87"/>
</linearGradient>
<linearGradient id="paint1_linear" x1="55.4678" y1="22.9984" x2="55.4678" y2="32.4919" gradientUnits="userSpaceOnUse">
<stop stop-color="#BD1CFF"/>
<stop offset="1" stop-color="#5527FD"/>
</linearGradient>
<linearGradient id="paint2_linear" x1="20.9678" y1="22.9858" x2="20.9678" y2="32.4921" gradientUnits="userSpaceOnUse">
<stop stop-color="#BD1CFF"/>
<stop offset="1" stop-color="#5527FD"/>
</linearGradient>
<linearGradient id="paint3_linear" x1="51.2892" y1="54.9779" x2="51.2892" y2="60.3744" gradientUnits="userSpaceOnUse">
<stop stop-color="#FF6167"/>
<stop offset="1" stop-color="#FF0E27"/>
</linearGradient>
<linearGradient id="paint4_linear" x1="64.3023" y1="41.5875" x2="64.3023" y2="47.5498" gradientUnits="userSpaceOnUse">
<stop stop-color="#442098"/>
<stop offset="1" stop-color="#22104C"/>
</linearGradient>
<clipPath id="clip0">
<rect width="96" height="96" fill="white"/>
</clipPath>
</defs>
</svg>
